<svg width="410" height="404" version="1.1" xmlns="http://www.w3.org/2000/svg" desc="Created with imagetracer.js version 1.2.6" ><path fill="rgb(97,168,254)" stroke="rgb(97,168,254)" stroke-width="1" opacity="0.984313725490196" d="M 16.5 44 L 33.5 46 L 61.5 52 L 117.5 61 L 134.5 65 L 139.5 65 L 149.5 67 L 151 68.5 L 150 70.5 L 149 103.5 L 148 104.5 L 147 118.5 L 148 120.5 Q 145.5 122 147 127.5 L 143.5 131 L 141 131.5 L 141.5 133 L 139 133 Q 140.1 135.7 137.5 135 L 133 137.5 L 133.5 139 L 131.5 139 L 119.5 149 L 117 149.5 L 117.5 151 L 115.5 151 L 111.5 155 L 109.5 155 L 104 159 Q 105.3 162 101.5 161 L 98 163 L 96.5 166 L 95 165.5 Q 95.8 167.8 93.5 167 L 89.5 171 L 87.5 171 L 82 175 L 82 177 Q 78.3 175.5 79 178.5 L 79.5 180 Q 77.3 180.8 78 178.5 L 10 60.5 L 9 50.5 L 12.5 46 L 16.5 44 Z " /><path fill="rgb(254,215,53)" stroke="rgb(254,215,53)" stroke-width="1" opacity="0.9882352941176471" d="M 292.5 1 Q 297.6 0.4 299 3.5 L 299 9.5 L 287 51.5 L 279 76.5 L 277.5 78 L 276 78 L 275.5 80 L 256.5 80 L 256 82 L 248.5 82 L 247.5 84 L 228.5 84 L 228.5 85 L 232 85.5 L 220 86.5 L 224 87.5 L 200 88.5 L 204 89.5 L 192 90 L 191.5 92 L 176.5 92 L 175.5 94 L 164.5 94 L 164.5 95 L 168 95.5 L 149 96 L 149 87.5 L 150 86.5 L 150 70.5 L 151 68.5 L 150 64.5 L 151 63.5 L 152 32.5 L 155.5 28 L 292.5 1 Z " /><path fill="rgb(254,215,53)" stroke="rgb(254,215,53)" stroke-width="1" opacity="0.9882352941176471" d="M 299.5 98 L 302 98.5 L 299.5 99 L 299.5 98 Z " /><path fill="rgb(254,215,53)" stroke="rgb(254,215,53)" stroke-width="1" opacity="0.9882352941176471" d="M 323.5 98 L 324 101.5 L 323 101.5 L 323.5 98 Z " /><path fill="rgb(254,215,53)" stroke="rgb(254,215,53)" stroke-width="1" opacity="0.9882352941176471" d="M 294.5 99 L 297 99.5 L 294.5 100 L 294.5 99 Z " /><path fill="rgb(254,215,53)" stroke="rgb(254,215,53)" stroke-width="1" opacity="0.9882352941176471" d="M 276.5 102 L 281 102.5 L 276.5 103 L 276.5 102 Z " /><path fill="rgb(254,215,53)" stroke="rgb(254,215,53)" stroke-width="1" opacity="0.9882352941176471" d="M 148.5 104 L 149 111.5 L 148 111.5 L 148.5 104 Z " /><path fill="rgb(254,215,53)" stroke="rgb(254,215,53)" stroke-width="1" opacity="0.9882352941176471" d="M 147.5 121 L 148 128.5 L 147 128.5 L 147.5 121 Z " /><path fill="rgb(254,215,53)" stroke="rgb(254,215,53)" stroke-width="1" opacity="0.9882352941176471" d="M 146.5 140 L 147 145.5 L 146 145.5 L 146.5 140 Z " /><path fill="rgb(254,215,53)" stroke="rgb(254,215,53)" stroke-width="1" opacity="0.9882352941176471" d="M 145.5 154 L 146 162.5 L 145 162.5 L 145.5 154 Z " /><path fill="rgb(254,215,53)" stroke="rgb(254,215,53)" stroke-width="1" opacity="0.9882352941176471" d="M 188.5 170 Q 194.3 169.3 195 173.5 L 194.5 178 Q 195 172.5 191.5 171 Q 187.5 171.8 188.5 170 Z " /><path fill="rgb(254,215,53)" stroke="rgb(254,215,53)" stroke-width="1" opacity="0.9882352941176471" d="M 144.5 171 L 145 174.5 L 144 174.5 L 144.5 171 Z " /><path fill="rgb(254,215,53)" stroke="rgb(254,215,53)" stroke-width="1" opacity="0.9882352941176471" d="M 145.5 177 L 151 179.5 L 148.5 180 L 145.5 177 Z " /><path fill="rgb(254,215,53)" stroke="rgb(254,215,53)" stroke-width="1" opacity="0.9882352941176471" d="M 191.5 190 L 192 192.5 L 191 192.5 L 191.5 190 Z " /><path fill="rgb(254,215,53)" stroke="rgb(254,215,53)" stroke-width="1" opacity="0.9882352941176471" d="M 190.5 195 L 191 197.5 L 190 197.5 L 190.5 195 Z " /><path fill="rgb(254,215,53)" stroke="rgb(254,215,53)" stroke-width="1" opacity="0.9882352941176471" d="M 189.5 200 L 190 202.5 L 189 202.5 L 189.5 200 Z " /><path fill="rgb(254,215,53)" stroke="rgb(254,215,53)" stroke-width="1" opacity="0.9882352941176471" d="M 183.5 230 L 184 234.5 L 183 234.5 L 183.5 230 Z " /><path fill="rgb(254,215,53)" stroke="rgb(254,215,53)" stroke-width="1" opacity="0.9882352941176471" d="M 187.5 237 L 190 237.5 L 187.5 238 L 187.5 237 Z " /><path fill="rgb(255,200,32)" stroke="rgb(255,200,32)" stroke-width="1" opacity="1" d="M 276 78 L 278 78.5 L 273 94.5 L 273 99.5 L 274 102 L 280.5 103 L 319.5 95 L 323 97.5 L 323 102.5 L 290 168 L 272 168.5 L 276 169.5 L 264 170 L 263.5 172 L 248.5 172 L 247.5 174 L 236.5 174 L 236.5 175 L 240 175.5 L 216 176.5 L 220 177.5 L 208 178.5 L 212 179.5 L 194 180 L 195 173.5 Q 194.3 169.3 188.5 170 L 157.5 178 L 148.5 179 L 145 176.5 L 147 129.5 L 148 128.5 L 148 112.5 L 149 111.5 L 149 98.5 L 150 97.5 L 149.5 96 L 168 95.5 L 164 94.5 L 176 94 L 176.5 92 L 191.5 92 L 192.5 90 L 203.5 90 L 203.5 89 L 200 88.5 L 224 87.5 L 220 86.5 L 232 85.5 L 228 84.5 L 248 84 L 248 82 L 255.5 82 L 256.5 80 L 275.5 80 L 276 78 Z " /><path fill="rgb(135,119,253)" stroke="rgb(135,119,253)" stroke-width="1" opacity="0.9882352941176471" d="M 388.5 44 Q 397.4 43.6 400 49.5 L 401 58.5 L 389 79.5 L 381.5 87 Q 378.9 86.3 380 89 L 377.5 89 L 371.5 95 L 363 99.5 L 363.5 101 L 358 103 L 355.5 107 L 353.5 107 L 349.5 111 L 341 115.5 L 341.5 117 L 339 117 Q 340.1 119.7 337.5 119 L 333.5 123 L 325.5 127 L 319.5 133 L 317 133.5 L 317.5 135 L 315.5 135 L 311.5 139 L 309.5 139 L 304 143 L 303.5 145 L 303 143.5 L 324 101.5 L 324 98.5 L 323 96 Q 320.9 94.4 315.5 95 L 283.5 102 L 275.5 102 L 273 96.5 L 282 65.5 L 284.5 63 L 289.5 63 L 300.5 60 L 338.5 54 L 388.5 44 Z " /><path fill="rgb(135,119,253)" stroke="rgb(135,119,253)" stroke-width="1" opacity="0.9882352941176471" d="M 147.5 114 L 148 118.5 L 147 118.5 L 147.5 114 Z " /><path fill="rgb(135,119,253)" stroke="rgb(135,119,253)" stroke-width="1" opacity="0.9882352941176471" d="M 146.5 128 L 147 135.5 L 146 136.5 L 146 153.5 L 145 154.5 Q 146.6 166.6 144 174.5 L 146.5 179 L 150.5 180 L 185.5 171 L 191.5 171 Q 195.8 172.8 194 180.5 L 191 190.5 L 185 224.5 L 183 228.5 L 183 230.5 Q 183.8 234.3 181.5 235 L 179.5 235 L 167.5 245 L 165 245.5 L 165.5 247 L 163.5 247 L 159.5 251 L 157.5 251 L 152 255 Q 153.3 258 149.5 257 L 143.5 263 L 135 267.5 L 135.5 269 L 130 270 L 79 180.5 L 79 178.5 L 79 177 L 82 177 Q 80.9 174.3 83.5 175 L 87.5 171 L 89.5 171 L 95 167 L 95.5 165 Q 96.8 167.3 98 164.5 Q 97.3 162.3 99.5 163 Q 100.6 160.3 104 161 Q 102.9 158.3 105.5 159 Q 106.9 154.9 112 154.5 L 111.5 153 L 112.5 154 L 115.5 151 L 118 150.5 L 117.5 149 L 119.5 149 L 125.5 143 L 134 138.5 L 133.5 137 L 139 135 Q 137.8 132 141.5 133 L 141.5 131 Q 146 131.5 146.5 128 Z " /><path fill="rgb(135,119,253)" stroke="rgb(135,119,253)" stroke-width="1" opacity="0.9882352941176471" d="M 213.5 230 L 216 230.5 L 213.5 231 L 213.5 230 Z " /><path fill="rgb(254,183,16)" stroke="rgb(254,183,16)" stroke-width="1" opacity="1" d="M 272.5 168 L 290 168.5 L 223.5 301 L 216 276.5 L 214.5 275 Q 210.3 276.3 212 271.5 L 220 235.5 L 217.5 231 L 212.5 230 L 191.5 237 L 185.5 237 L 184 235.5 L 184 227.5 L 194 180 L 212 179.5 L 208 178.5 L 220 177.5 L 216 176.5 L 240 175.5 L 236 174.5 L 248 174 L 248.5 172 L 263.5 172 L 264.5 170 L 275.5 170 L 275.5 169 Q 271.5 169.7 272.5 168 Z " /><path fill="rgb(164,82,253)" stroke="rgb(164,82,253)" stroke-width="1" opacity="0.984313725490196" d="M 388.5 80 L 387 82.5 L 279.5 275 L 270.5 275 L 269 276.5 L 239 349 Q 235.7 350.3 237 345.5 L 224 305.5 L 224 300.5 L 302.5 144 L 304 144.5 L 303 142.5 L 304.5 143 L 318 134.5 L 317.5 133 L 319.5 133 L 325.5 127 L 327.5 127 L 331.5 123 L 333.5 123 L 339 119 Q 337.8 116 341.5 117 L 341.5 115 L 343.5 115 L 347.5 111 L 356 106.5 L 355.5 105 Q 356.8 107.3 358 104.5 Q 357.3 102.3 359.5 103 L 364 100.5 L 363.5 99 L 372 94.5 L 371.5 93 L 372.5 94 L 377.5 89 L 380 89 Q 378.9 86.3 381.5 87 L 388.5 80 Z " /><path fill="rgb(164,82,253)" stroke="rgb(164,82,253)" stroke-width="1" opacity="0.984313725490196" d="M 210.5 231 Q 217.5 229.5 219 233.5 L 219 238.5 L 211 275 L 191.5 275 L 191 276.5 L 171 339 L 168 337.5 L 130 270.5 L 136 268.5 L 135.5 267 L 144 262.5 L 143.5 261 L 144.5 262 L 149.5 257 L 152 257 Q 150.9 254.3 153.5 255 L 157.5 251 L 166 246.5 L 165.5 245 L 167.5 245 L 173.5 239 L 175.5 239 L 182.5 234 Q 183.5 239 190.5 238 L 210.5 231 Z " /><path fill="rgb(164,82,253)" stroke="rgb(164,82,253)" stroke-width="1" opacity="0.984313725490196" d="M 202.5 327 Q 213.1 352.9 220 382.5 L 213.5 392 Q 210.8 394.8 204.5 394 L 198 389.5 L 188 372.5 L 188 367.5 L 191 361.5 L 201 328.5 L 202.5 327 Z " /><path fill="rgb(0,0,0)" stroke="rgb(0,0,0)" stroke-width="1" opacity="0" d="M 0 0 L 410 0 L 410 404 L 0 404 L 0 0 Z M 293 1 L 156 28 L 152 33 L 151 64 L 150 67 L 22 44 Q 15 43 13 46 L 9 51 L 10 61 L 170 340 L 167 349 L 150 316 L 134 363 L 134 366 L 137 372 L 148 391 L 150 392 L 181 392 L 188 372 L 198 390 L 205 394 Q 211 395 214 392 L 220 383 L 223 391 L 224 392 L 255 392 L 301 275 L 280 275 L 401 59 L 400 50 L 393 44 L 285 63 L 283 64 L 299 10 L 299 4 Q 298 0 293 1 Z M 55 275 L 55 392 L 85 392 L 85 352 L 112 352 L 119 350 L 120 349 L 138 293 L 135 288 Q 130 281 122 278 L 109 275 L 55 275 Z M 320 276 L 317 280 L 304 313 Q 309 331 316 347 L 316 348 L 292 348 L 282 369 L 283 371 L 323 371 Q 328 379 330 391 L 332 392 L 363 392 L 320 276 Z " /><path fill="rgb(0,0,0)" stroke="rgb(0,0,0)" stroke-width="1" opacity="0" d="M 85 298 L 100.5 298 L 108.5 301 L 111 303.5 L 114 313.5 Q 111.8 314.7 113 319.5 L 107.5 327 L 101.5 329 L 85 329 L 85 298 Z " /><path fill="rgb(54,98,109)" stroke="rgb(54,98,109)" stroke-width="1" opacity="0.984313725490196" d="M 211.5 274 L 216 276.5 L 237 349 Q 240 350.3 239 346.5 L 245 335.5 L 270 275 L 300.5 275 L 301 277.5 L 255 392 L 223.5 392 L 223 390.5 L 202.5 325 L 189 363.5 L 188 371.5 L 181 392 L 149.5 392 L 148 390.5 L 137 371.5 L 134 365.5 L 134 362.5 L 149.5 316 L 166.5 349 L 171 339.5 L 181 306.5 L 192.5 275 L 210.5 275 L 211.5 274 Z " /><path fill="rgb(54,98,109)" stroke="rgb(54,98,109)" stroke-width="1" opacity="0.984313725490196" d="M 55 275 L 108.5 275 L 121.5 278 Q 129.8 281.2 135 287.5 L 138 292.5 L 120 348.5 L 118.5 350 L 111.5 352 L 85 352 L 85 392 L 55 392 L 55 275 Z M 85 298 L 85 329 L 102 329 L 108 327 L 113 320 Q 112 315 114 314 L 111 304 L 109 301 L 101 298 L 85 298 Z " /><path fill="rgb(54,98,109)" stroke="rgb(54,98,109)" stroke-width="1" opacity="0.984313725490196" d="M 319.5 276 L 363 392 L 331.5 392 L 330 390.5 Q 327.8 379.2 322.5 371 L 282.5 371 L 282 368.5 L 291.5 348 L 315.5 348 L 316 346.5 Q 308.5 331 304 312.5 L 317 279.5 L 319.5 276 Z " /></svg>